<?xml version="1.0" encoding="UTF-8"?>
<!DOCTYPE svg PUBLIC "-//W3C//DTD SVG 1.1//EN" "http://www.w3.org/Graphics/SVG/1.1/DTD/svg11.dtd">
<!-- Creator: CorelDRAW 2019 (64-Bit) -->
<svg xmlns="http://www.w3.org/2000/svg" xml:space="preserve" width="400px" height="400px" version="1.1" style="shape-rendering:geometricPrecision; text-rendering:geometricPrecision; image-rendering:optimizeQuality; fill-rule:evenodd; clip-rule:evenodd"
viewBox="0 0 400 400"
 xmlns:xlink="http://www.w3.org/1999/xlink"
 xmlns:xodm="http://www.corel.com/coreldraw/odm/2003">
 <defs>
  <style type="text/css">
   <![CDATA[
    .fil0 {fill:url(#id0)}
    .fil3 {fill:url(#id1)}
    .fil2 {fill:url(#id2)}
    .fil1 {fill:url(#id3)}
    .fil4 {fill:url(#id4);fill-rule:nonzero}
    .fil5 {fill:url(#id5);fill-rule:nonzero}
   ]]>
  </style>
  <linearGradient id="id0" gradientUnits="userSpaceOnUse" x1="90.93" y1="176.86" x2="333.76" y2="176.86">
   <stop offset="0" style="stop-opacity:1; stop-color:#1DDDC7"/>
   <stop offset="1" style="stop-opacity:1; stop-color:white"/>
  </linearGradient>
  <linearGradient id="id1" gradientUnits="userSpaceOnUse" xlink:href="#id0" x1="173.35" y1="61.32" x2="230.3" y2="281.01">
  </linearGradient>
  <linearGradient id="id2" gradientUnits="userSpaceOnUse" xlink:href="#id0" x1="118.4" y1="234.34" x2="357.23" y2="182.41">
  </linearGradient>
  <linearGradient id="id3" gradientUnits="userSpaceOnUse" xlink:href="#id0" x1="68.95" y1="238.21" x2="301.42" y2="189.13">
  </linearGradient>
  <linearGradient id="id4" gradientUnits="userSpaceOnUse" x1="123.26" y1="297.84" x2="291.2" y2="75.99">
   <stop offset="0" style="stop-opacity:1; stop-color:#9800FE"/>
   <stop offset="0.360784" style="stop-opacity:1; stop-color:#5B6EE3"/>
   <stop offset="1" style="stop-opacity:1; stop-color:#1DDDC7"/>
  </linearGradient>
  <linearGradient id="id5" gradientUnits="userSpaceOnUse" xlink:href="#id4" x1="123.26" y1="297.84" x2="291.2" y2="75.99">
  </linearGradient>
 </defs>
 <g id="Layer_x0020_1">
  <metadata id="CorelCorpID_0Corel-Layer"/>
  <g id="_2005948103232">
   <path class="fil0" d="M212.34 54.47c67.06,-13.32 121.42,30.69 121.42,98.28 0,67.59 -54.36,133.19 -121.42,146.5 -67.05,13.32 -121.41,-30.68 -121.41,-98.28 0,-67.59 54.36,-133.18 121.41,-146.5z"/>
   <path class="fil1" d="M159.35 91.28c64.24,-13.32 127.89,30.68 142.16,98.28 14.27,67.59 -26.24,133.19 -90.48,146.5 -64.25,13.32 -127.9,-30.68 -142.17,-98.28 -14.27,-67.59 26.24,-133.18 90.49,-146.5z"/>
   <path class="fil2" d="M211.98 89.55c64.24,-22.18 127.89,13.03 142.16,78.66 14.27,65.62 -26.24,136.81 -90.48,158.99 -64.25,22.18 -127.9,-13.03 -142.17,-78.66 -14.27,-65.62 26.24,-136.81 90.49,-158.99z"/>
   <path class="fil3" d="M328.59 138.31c25.26,58.19 -11.01,120.08 -81.02,138.22 -70.01,18.15 -147.25,-14.31 -172.51,-72.5 -25.26,-58.2 11.01,-120.09 81.02,-138.23 70.01,-18.15 147.24,14.31 172.51,72.51z"/>
  </g>
  <g id="_2005948103040">
   <path class="fil4" d="M324.9 198.06c0,19.35 -2.9,37.18 -8.78,53.32 -5.79,16.21 -14.21,30.05 -25.16,41.6 -10.95,11.46 -24.35,20.45 -40,26.82 -15.75,6.37 -33.67,9.59 -53.59,9.59 -19.09,0 -36.2,-2.81 -51.31,-8.33 -15.12,-5.6 -27.97,-13.75 -38.47,-24.53 -10.5,-10.79 -18.55,-24.12 -24.16,-40.08 -5.52,-15.88 -8.33,-34.22 -8.33,-54.93 0,-19.45 2.9,-37.19 8.78,-53.15 5.79,-16.05 14.21,-29.8 25.16,-41.35 10.95,-11.46 24.35,-20.46 40,-26.82 15.75,-6.37 33.67,-9.59 53.58,-9.59 19.1,0 36.21,2.8 51.32,8.32 15.12,5.61 27.97,13.68 38.47,24.37 10.49,10.7 18.55,24.03 24.16,40 5.52,15.87 8.33,34.13 8.33,54.76zm-47.24 1.78c0,-15.37 -1.82,-28.87 -5.44,-40.42 -3.62,-11.54 -8.78,-21.14 -15.47,-28.87 -6.79,-7.72 -14.94,-13.5 -24.53,-17.4 -9.68,-3.91 -20.36,-5.86 -32.22,-5.86 -13.76,-0.01 -25.61,2.54 -35.39,7.55 -9.77,5.09 -17.83,11.88 -24.07,20.29 -6.34,8.49 -10.86,18.34 -13.85,29.54 -2.9,11.21 -4.35,22.93 -4.35,35.15 0,15.46 1.81,29.04 5.44,40.59 3.62,11.63 8.77,21.31 15.47,29.03 6.79,7.73 14.85,13.5 24.44,17.41 9.5,3.91 20.27,5.86 32.31,5.86 13.76,0 25.61,-2.54 35.39,-7.55 9.77,-5.09 17.83,-11.89 24.07,-20.29 6.34,-8.49 10.86,-18.34 13.85,-29.54 2.9,-11.21 4.35,-23.01 4.35,-35.49z"/>
   <path class="fil5" d="M194.43 230.88c-1.99,1.11 -4.03,1.93 -6.12,2.45 -2.1,0.55 -4.25,0.81 -6.46,0.81 -6.96,0 -12.32,-2.73 -16.07,-8.19 -3.75,-5.46 -5.64,-13.44 -5.64,-23.95 0,-5.03 0.54,-9.6 1.62,-13.72 1.09,-4.1 2.6,-7.61 4.56,-10.54 1.96,-2.92 4.31,-5.18 7.01,-6.76 2.73,-1.59 5.72,-2.39 8.99,-2.39 2.28,0 4.42,0.23 6.41,0.69 1.99,0.47 3.89,1.23 5.7,2.29l0 10.54c-1.9,-1.45 -3.83,-2.51 -5.81,-3.16 -1.97,-0.68 -4.01,-1 -6.12,-1 -1.96,0 -3.8,0.55 -5.55,1.63 -1.73,1.09 -3.26,2.62 -4.57,4.66 -1.32,2.04 -2.35,4.51 -3.11,7.44 -0.77,2.93 -1.14,6.22 -1.14,9.91 0,7.71 1.28,13.48 3.87,17.31 2.59,3.84 6.18,5.74 10.77,5.74 2.07,0 4.09,-0.35 6.03,-1.02 1.93,-0.67 3.82,-1.67 5.63,-3.01l0 10.27zm30.14 -52.3l-13.02 0.01 0 -9.11 20.74 -0.01 0 54.5 13.1 -0.01 0 9.23 -35.27 0.02 0 -9.23 14.45 -0.01 0 -45.39zm2.69 -35.9c0.85,0 1.65,0.22 2.36,0.68 0.74,0.43 1.38,1.06 1.92,1.86 0.54,0.82 0.97,1.73 1.27,2.77 0.31,1.04 0.46,2.17 0.46,3.41 0,1.19 -0.15,2.31 -0.46,3.36 -0.3,1.06 -0.73,1.99 -1.27,2.81 -0.54,0.81 -1.18,1.44 -1.92,1.87 -0.71,0.45 -1.51,0.67 -2.36,0.67 -0.85,0 -1.65,-0.21 -2.36,-0.67 -0.74,-0.43 -1.38,-1.06 -1.92,-1.86 -0.54,-0.82 -0.97,-1.76 -1.27,-2.82 -0.31,-1.04 -0.46,-2.17 -0.46,-3.36 0,-1.23 0.15,-2.36 0.46,-3.4 0.3,-1.04 0.73,-1.95 1.27,-2.78 0.54,-0.8 1.18,-1.43 1.92,-1.86 0.71,-0.46 1.51,-0.68 2.36,-0.68z"/>
  </g>
 </g>
</svg>
